<?xml version="1.0" encoding="UTF-8"?>
<svg id="Layer_1" xmlns="http://www.w3.org/2000/svg" version="1.1" viewBox="0 0 360 360">
  <!-- Generator: Adobe Illustrator 30.5.1, SVG Export Plug-In . SVG Version: 2.1.4 Build 3)  -->
  <defs>
    <style>
      .st0 {
        fill: #1789fc;
      }
    </style>
  </defs>
  <rect width="360" height="360"/>
  <g>
    <path class="st0" d="M113.7,135.7l-35.6,25.6c-1.7,1.2-4.1.8-5.3-.9-.5-.6-.7-1.4-.7-2.2v-61.2c0-2.1,1.7-3.8,3.8-3.8,1,0,2,.4,2.7,1.1l35.6,35.6c1.5,1.5,1.5,3.9,0,5.4-.1.1-.3.3-.5.4Z"/>
    <path class="st0" d="M177.9,196.8c-1.8-1-3.1-.2-4.7,1-28.4,20.4-59.7,42.9-94,67.6-1.3.9-2.2,1.4-2.8,1.5-2.2.3-4.3-1.4-4.3-3.7,0-19.2,0-42.1,0-68.8,0-.9.3-1.6.9-2.2.2-.2.8-.7,2-1.5,56.7-40.7,89.7-64.5,99.1-71.2,1.4-1,3.2-1,4.6,0,1,.7,1.5,1.9,1.5,3.5,0,16,0,36.7,0,62.1,0,1.7.5,2.9,2,3.7,1.8,1,3.1.2,4.7-1,28.4-20.4,59.7-42.9,94-67.6,1.3-.9,2.2-1.4,2.8-1.5,2.2-.3,4.3,1.4,4.3,3.7,0,19.2,0,42.1,0,68.8,0,.9-.3,1.6-.9,2.2-.2.2-.8.7-2,1.5-56.7,40.7-89.7,64.5-99.1,71.2-1.4,1-3.2,1-4.6,0-1-.7-1.5-1.9-1.5-3.5,0-16,0-36.7,0-62.1s-.5-2.9-2-3.7Z"/>
  </g>
</svg>