<?xml version="1.0" encoding="UTF-8"?>
<svg id="Layer_1" xmlns="http://www.w3.org/2000/svg" version="1.1" viewBox="0 0 809 1697.8">
  <defs>
    <style>
      .st0 {
        fill: #45475a;
      }

      .st1 {
        fill: #7f8097;
      }
    </style>
  </defs>
  <g>
    <path class="st1" d="M404.7,306c.3,0,.6-.1.8-.3,8.6-8.1,14.1-19.2,17-30.2,1.2-4.4,2.7-10.7,3.4-15.7,1.4-9.8,2.6-17,3.8-21.5,1.1-4.1,5.5-8.5,9.1-11.5,3.7-3,6.2-6.6,8.8-10.8.1-.2.4-.3.6-.1,0,0,.2.1.2.2.2.6.3,1.3.2,2-.5,5.9-1.3,11.3-2.4,16.2-3.3,15.3-7.7,29.4-13.2,42.3-5.6,13.1-14.7,30-28.1,36.5,0,0-.2,0-.3,0s-.3,0-.3,0c-13.3-6.4-22.5-23.4-28.1-36.5-5.5-12.9-9.9-27-13.2-42.3-1.1-4.9-1.9-10.3-2.4-16.2,0-.7,0-1.4.2-2,0-.2.3-.4.6-.3.1,0,.2,0,.2.2,2.6,4.2,5.2,7.7,8.8,10.8,3.6,3,8,7.4,9.1,11.5,1.2,4.5,2.5,11.7,3.8,21.5.7,5.1,2.3,11.4,3.4,15.7,2.9,11.1,8.5,22.1,17,30.2.2.2.5.3.8.3Z"/>
    <path class="st1" d="M275.7,272.7c-.2,0-.3-.3-.3-.5,0-.1.1-.2.2-.2,17.1-7.5,33.1-15.4,48.2-23.5,10.1-5.5,19.9-11.7,29.4-18.7.4-.3.9-.2,1.2.2,0,0,.1.2.1.3,1.8,8.8,2.8,16.5,5.3,25.5,2.3,8.3,5.2,16.8,8.7,25.4,5.9,14.6-16.3,12-23.1,10.4-6.5-1.6-12.2-3.1-17.1-4.5-17.5-5.1-31-9-40.6-11.7-4.3-1.2-8.1-1.7-12.1-2.7Z"/>
    <path class="st1" d="M533.6,272.7c-4,1-7.9,1.5-12.1,2.7-9.5,2.6-23,6.5-40.5,11.6-4.9,1.4-10.6,2.9-17.1,4.5-6.8,1.6-29,4.2-23.1-10.4,3.5-8.6,6.4-17,8.7-25.4,2.5-8.9,3.5-16.7,5.3-25.5,0-.5.6-.8,1-.7.1,0,.2,0,.3.1,9.5,7,19.3,13.3,29.4,18.7,15,8.1,31,15.9,48.1,23.5.2,0,.3.3.2.5,0,0-.1.2-.2.2Z"/>
    <path class="st1" d="M188.9,420.7c-2-8.4-2.8-16.9-3.5-25-2.2-29.5,3.2-61.4,21.3-85.7,10.9-14.7,25-24,42.3-28.2,17.7-4.2,39-.1,55.7,8.3.2,0,.2.3.2.4,0,0,0,.1-.2.2-7.1,3.1-13.8,7.3-19.8,12.7-18.3,16.3-33.1,37.6-44.2,59.3-3.8,7.4-6.8,12.8-9,16.1-11,16.3-25.5,31.9-42.2,42.1-.2.1-.4,0-.6-.1,0,0,0,0,0-.1Z"/>
    <path class="st1" d="M620.5,420.8c0,.2-.3.4-.5.3,0,0,0,0-.1,0-16.7-10.2-31.2-25.8-42.2-42.1-2.2-3.3-5.2-8.7-9-16.1-11.1-21.8-25.9-43-44.3-59.3-6.1-5.4-12.7-9.6-19.8-12.7-.2,0-.2-.3-.2-.4,0,0,0-.1.2-.2,16.8-8.5,38.1-12.5,55.7-8.4,17.3,4.1,31.4,13.5,42.4,28.2,18.1,24.3,23.5,56.2,21.3,85.7-.6,8.1-1.5,16.7-3.4,25Z"/>
    <path class="st1" d="M398.9,428.5c-.1-6.1-.2-11.8-.1-17.3.2-20.2.1-44.5-.2-72.9,0-5.2-.6-9.1-1.5-11.5-2.2-5.5-6.8-10.9-12.6-13.2-1.8-.7-3.3-1.6-5.1-2.3-13.8-5.1-25.8-8.9-36-11.4-.6-.2-1.3-.3-1.9-.5-2.8-.8-5.3-1.5-7.5-1.9-1.6-.3-3-1-4.1-2,14.7,3.3,29.2,7.5,43.4,12.4,5.3,1.8,12,3.9,15.9,6.7,4.6,3.2,7.8,7.3,9.7,12.3.9,2.3,1.3,6,1.3,11.2,0,29.5,0,59.3,0,89.2,0,.2,0,.3-.2.4l-.9.8Z"/>
    <path class="st1" d="M576,394.4c-3.9-5.9-7.8-11.8-11.7-17.7-5.1-7.7-9.7-15.6-13.8-23.5-4.3-8.3-10.1-17.1-17.4-26.4-5.8-7.4-12.6-14.1-20.3-19.8-5.8-4.4-12.4-7.4-19-9.5-1.4-.5-2.6-1.1-3.4-1.8,14.2,2.6,27.3,12,37,22.4,10.1,10.9,18.7,23.1,25.7,36.5,7.2,13.7,14.1,24,24.1,38.9.2.3.1.6-.2.8,0,0-.2,0-.3,0h-.8Z"/>
    <path class="st1" d="M244.8,409.8c3.9,2.1,3.7,7.3,2.9,11.4-2.3,11.6-6.7,24.3-8.8,34.1-.5,2.1-.7,5-.6,6.3.8,11.6-.9,23-5.1,34.1-8.6,22.7-24.7,44.1-44.4,58.8-10.2,7.6-22.5,5.9-27.3-6.9-3.8-9.9-3.4-22.3-2.1-32.6,2.6-19.6,8-38.3,16.4-56.2,4.1-8.8,9.1-17.2,16-24,2.8-2.8,7.4-5.1,10.3-7.4,1.2-.9,6.9-5.7,17.1-14.2.9-.8,2.6-1.9,5-3.2,6.6-3.8,13.9-3.8,20.6-.1Z"/>
    <path class="st1" d="M566.2,438.6c-1.8-5.8-3.2-11-4.2-15.6-.9-4-1.9-10.7,2.6-13.1,8-4.3,15.8-3.7,23.3,1.7,8.8,6.3,16.3,14.2,25.7,20,4.8,3,9,8.3,12.7,14,2,3,3.6,5.7,4.7,7.9,9,17.7,15.1,36.4,18.3,56.3,1.4,8.9,1.8,18,1.1,27.4-.4,5.2-2.4,12.3-6.2,16.9-3.9,4.8-11.1,6.2-16.6,4.2-3.2-1.1-6.4-3-9.6-5.6-11.4-9.2-21.3-20.1-29.7-32.9-10.9-16.6-19.6-38.6-17.7-58.7,0-.7,0-3.1-.4-6.9,0-.3,0-.6-.2-.9-.8-2.8-1.5-5.2-1.9-7.4-.5-2-1.1-4.5-2-7.3Z"/>
    <path class="st1" d="M258.7,420.3c0-.2.1-.3.3-.3,0,0,.2,0,.2.1,6.3,9.1,14.1,16.6,23.5,22.6,2,1.3,4.2,2.3,6.4,3,.5.2.9.6,1,1.1,1.6,10.2,2.2,20.4,1.7,30.5-.3,7.3-2.1,14-5.2,20.1-.8,1.5-2.5,4.5-5.2,8.8-1.7,2.7-2,6-1,10,1.9,7.7,5,15,5,23.2,0,.3-.2.5-.5.5-.1,0-.2,0-.3-.1-1.8-1.7-3.7-4-5.9-6.8-15.6-20.3-25.1-43.4-28.6-69.1-.5-3.7-.5-6.7,0-8.9,1.5-5.8,3-10.9,4.4-15.3,2.2-6.5,3.6-13,4.1-19.4Z"/>
    <path class="st1" d="M550.5,420.3c.5,6.5,1.9,12.9,4.1,19.4,1.5,4.3,3,9.4,4.4,15.3.6,2.2.6,5.2,0,8.9-3.5,25.7-13.1,48.7-28.7,69.1-2.2,2.8-4.1,5.1-5.9,6.8-.2.2-.5.2-.7,0,0,0-.1-.2-.1-.3,0-8.2,3.1-15.5,5-23.2,1-4,.6-7.4-1-10-2.7-4.3-4.4-7.2-5.2-8.8-3.1-6.1-4.8-12.9-5.2-20.1-.5-10.1,0-20.3,1.7-30.5,0-.5.5-1,1-1.1,2.3-.7,4.4-1.7,6.4-3,9.4-6,17.2-13.5,23.5-22.6,0-.1.3-.2.4,0,0,0,.1.1.1.2Z"/>
    <path class="st1" d="M400.2,472.5c0,.3-.2.5-.5.5-10.3.4-20.4,2.9-30.2,7.6-14.9,7-28.3,15.8-41.8,24.5-1.1.7-2.7,1-4.9.9-5.3-.3-10.2-5.9-13.2-10.5-3.9-5.8-6.6-12.8-8.2-20.9-1.9-9.8-.5-22.2,8.9-26.9,1.9-.9,6.1-2.1,12.7-3.4,15.1-3,30.8-5.4,47-7,9.4-.9,19.5-1.6,28.4.6,1.1.3,1.9,1.2,1.9,2.4v32.2Z"/>
    <path class="st1" d="M409.1,472.5v-32.2c0-1.1.8-2.1,1.9-2.4,8.8-2.1,18.9-1.5,28.4-.6,16.2,1.6,31.9,3.9,47,7,6.6,1.3,10.8,2.4,12.7,3.4,9.4,4.7,10.8,17.1,8.9,26.9-1.6,8.1-4.3,15-8.2,20.9-3.1,4.6-7.9,10.2-13.2,10.5-2.2.1-3.8-.2-4.9-.9-13.5-8.7-26.9-17.4-41.8-24.5-9.8-4.6-19.9-7.1-30.2-7.6-.3,0-.5-.2-.5-.5Z"/>
    <path class="st1" d="M400.3,540.1c0,.2-.1.3-.3.3,0,0,0,0,0,0-16.4-1.5-33.7.5-49.3,7-9.9,4.1-16.8-22.6-17.9-28.6-.6-3.1,5-7.8,7.4-9.8,16.4-13.1,37.9-24,59.3-26.9.4,0,.8.2.8.6,0,0,0,0,0,0v57.3Z"/>
    <path class="st1" d="M409.1,540.1v-57.3c0-.4.3-.7.7-.7,0,0,0,0,0,0,21.4,2.9,42.9,13.8,59.3,26.9,2.5,2,8,6.7,7.4,9.8-1.1,6-8,32.7-17.9,28.6-15.6-6.5-32.9-8.5-49.3-7-.2,0-.3-.1-.3-.3,0,0,0,0,0,0Z"/>
    <path class="st1" d="M335.2,598c0,.3-.2.5-.5.4-.1,0-.2,0-.3-.2-7.6-8.8-18.3-15-27.7-20.7-2.2-1.4-5.7-3.7-7.2-5.9-.3-.4-.4-1.3-.4-2.8.4-13.5-1.1-27.2-4.4-41-1.1-4.5-2.5-9-4.3-13.4-.1-.3,0-.6.3-.7.1,0,.2,0,.3,0,38.6,7.9,45.5,52,44.1,84.3Z"/>
    <path class="st1" d="M474.2,597.9c-1.5-32.1,5.4-76.2,43.8-84.1.3,0,.6.1.7.4,0,.1,0,.2,0,.3-1.7,4.4-3.2,8.9-4.2,13.4-3.3,13.8-4.8,27.4-4.4,40.9,0,1.4,0,2.3-.4,2.8-1.4,2.2-4.9,4.5-7.2,5.9-9.4,5.7-20,11.9-27.6,20.7-.2.2-.5.2-.6,0-.1,0-.2-.2-.2-.3Z"/>
    <path class="st1" d="M81.2,701.6c-2.9,2.2-5.9,3.9-9.1,5.2-.7.3-1.3.4-1.6.4-.6,0-1-.6-.9-1.1,0-.2,0-.3.2-.5,4-5.7,7.6-11.8,10.7-18.2,7.2-15.1,12.9-31.1,17.2-47.9,2.6-10.4,3.5-20.6,4-30.5.3-4.5,1.4-9.3,3.5-14.6,5.6-14.4,14.4-27.5,26.5-39.3,2.6-2.5,5.6-4.9,9.1-7.1.6-.4,1.3-.4,2-.1,10,4.9,12.6,9.5,12.3,20.6-.4,11.3-2.4,21.5-4,30.7-3,17.2-10.3,33.8-19.7,48.6-13.5,21.1-30.1,39-50,53.8Z"/>
    <path class="st1" d="M728.3,701.7c-19.9-14.7-36.6-32.7-50.1-53.8-9.4-14.7-16.8-31.4-19.8-48.6-1.6-9.2-3.6-19.4-4-30.8-.4-11.1,2.3-15.7,12.3-20.7.6-.3,1.4-.3,2,.1,3.5,2.2,6.5,4.6,9.1,7.1,12,11.8,20.9,24.9,26.6,39.3,2.1,5.2,3.2,10.1,3.5,14.6.6,9.9,1.4,20.1,4.1,30.5,4.3,16.8,10,32.8,17.2,48,3.1,6.5,6.7,12.6,10.7,18.3.3.5.2,1.1-.2,1.4-.1.1-.3.2-.5.2-.3,0-.9-.1-1.6-.4-3.2-1.3-6.2-3.1-9.1-5.2Z"/>
    <path class="st1" d="M400.2,625.8c0,.2-.2.4-.4.4-12.2.1-22.6.1-31.2,0-5.3,0-10.7-4.2-13.8-8.6-12-17.1-14.7-50.4,5-63.5.7-.5,2.6-1.3,5.7-2.3,8.3-2.8,17.9-3.4,26.6-3.3,2.5,0,5.1.3,7.7.9.3,0,.5.3.5.6v75.9Z"/>
    <path class="st1" d="M409.1,625.8v-75.8c0-.3.3-.5.6-.6,2.6-.5,5.2-.8,7.7-.9,8.7-.1,18.3.6,26.6,3.3,3,1,4.9,1.8,5.7,2.3,19.7,13.1,16.9,46.5,4.9,63.5-3.1,4.4-8.6,8.5-13.8,8.6-8.6.1-19.1.1-31.2,0-.2,0-.4-.2-.4-.4Z"/>
    <path class="st1" d="M604.7,557.4c0-.1.1-.3.3-.3,0,0,.2,0,.2.1,1.5,2.1,3.4,4.1,5.6,6,9.2,8.3,22.5,10.4,33.4,4.7.3-.2.7,0,.9.3,0,0,0,.2,0,.2.5,7.6,1.3,15.7,2.3,24.2,3.3,26.6,13.7,49.7,30.8,71.2,18.6,23.4,42.4,44,67.4,63.2.4.3.5.9.2,1.2,0,0,0,0,0,0-7,8.1-18.4,11.3-28.3,5.9-.6-.3-1.1-.8-1.4-1.4-12.1-22.1-26.9-42.3-44.4-60.4-6.5-6.7-13.9-13.8-22.2-21.4-11.6-10.5-21.4-22-29.4-34.6-11.4-17.9-16.5-37.6-15.3-59.1Z"/>
    <path class="st1" d="M204.6,557.5c1.2,21.5-3.9,41.2-15.3,59.1-8.1,12.6-17.9,24.2-29.4,34.6-8.4,7.6-15.8,14.7-22.2,21.4-17.5,18.1-32.3,38.3-44.4,60.4-.3.6-.8,1.1-1.4,1.4-9.9,5.4-21.3,2.2-28.3-5.9-.3-.4-.3-.9,0-1.3,0,0,0,0,0,0,25-19.3,48.8-39.8,67.4-63.2,17.1-21.5,27.5-44.6,30.8-71.2,1.1-8.5,1.8-16.6,2.3-24.2,0-.4.3-.6.7-.6,0,0,.2,0,.2,0,11,5.7,24.2,3.6,33.4-4.7,2.2-1.9,4-3.9,5.6-6,0-.1.3-.2.4,0,0,0,.1.1.1.2Z"/>
    <path class="st1" d="M330.4,655.2c-.1.1-.3.2-.5,0,0,0,0,0,0,0-8-7.8-20.5-20.4-37.4-37.8-3.9-4-3.1-11-2.1-15.4.9-4.1,2.3-10.1,4.2-17.9,0-.2.2-.3.4-.2,0,0,0,0,0,0,9.6,5.7,18.3,11.6,26,17.7,5.1,4.1,11.6,10.9,11.5,17.5-.1,11-.3,18.1-.4,21.3-.2,5.7-.6,10.4-1.4,14.1,0,.3-.2.5-.3.7Z"/>
    <path class="st1" d="M478.9,655.1c-.1-.2-.2-.4-.3-.7-.8-3.7-1.2-8.4-1.4-14.1-.1-3.2-.2-10.3-.3-21.2,0-6.6,6.4-13.4,11.5-17.4,7.7-6.1,16.3-12,25.9-17.7.1,0,.3,0,.4,0,0,0,0,0,0,0,1.9,7.8,3.3,13.8,4.2,17.9,1,4.4,1.8,11.4-2.1,15.4-17,17.3-29.4,29.9-37.4,37.7-.1.1-.4.1-.5,0,0,0,0,0,0,0Z"/>
    <path class="st1" d="M335.4,738.1c0,.4-.4.7-.8.6,0,0-.2,0-.2,0-26.7-11.9-43.3-39.7-52.9-66.3-.4-1-.6-1.9-.8-3-2.2-13.7-1.3-29.7,4.6-42.6,0-.2.3-.3.5-.2,0,0,0,0,.1,0,15.2,15.3,29.2,29.2,40,46.6.5.9,1,1.8,1.3,2.8,1.2,3.4,2.4,7.2,3.4,11.5,4,16.5,6.8,33.7,4.8,50.5Z"/>
    <path class="st1" d="M473.9,738.1c-2.1-16.8.7-34,4.7-50.5,1-4.3,2.2-8.1,3.4-11.5.4-1,.8-1.9,1.3-2.8,10.8-17.4,24.8-31.4,40-46.7.1-.1.4-.1.5,0,0,0,0,0,0,.1,5.9,12.9,6.8,28.9,4.6,42.6-.2,1-.4,2-.8,3-9.6,26.6-26.2,54.3-52.9,66.3-.4.2-.8,0-1-.4,0,0,0-.1,0-.2Z"/>
    <path class="st1" d="M400.3,636v178.7c0,.5-.4.9-.9.9-.1,0-.2,0-.3,0-3-1.1-5.5-2.8-7.5-5.2-5.3-6.2-10-13.5-13.9-21.7-11-23.1-18.4-47.7-22.3-74-1.8-12.2-2.6-25.2-2.3-38.8.3-12.5,1.8-23.9,4.5-34.2.1-.4.3-.8.6-1.2,2-2.2,4.6-3.5,8-4,10.7-1.6,21.9-1.8,33.7-.9.2,0,.4.2.4.4Z"/>
    <path class="st1" d="M409.1,636c0-.2.2-.4.4-.4,11.7-1,22.9-.7,33.6.9,3.3.5,6,1.8,8,4,.3.3.5.7.6,1.2,2.7,10.3,4.2,21.7,4.5,34.2.3,13.6-.5,26.6-2.3,38.8-3.9,26.2-11.3,50.9-22.3,74-3.9,8.2-8.5,15.4-13.9,21.7-2,2.4-4.5,4.1-7.5,5.2-.5.2-1,0-1.1-.5,0,0,0-.2,0-.3v-178.6Z"/>
    <path class="st1" d="M285.7,713.6c.1-.2.4-.3.6-.2,0,0,.2.1.2.2,5.7,10.6,13.4,18.9,23.2,25,.3.2.4.6.2,1-.7,1.3-1.7,2.2-2.9,3.9-5.2,7.5-10.1,17.1-14.7,28.7-3.8,9.5-6.3,16-7.4,19.5-8.7,26.5-13.8,42-15.4,46.4-2.7,7.8-5.7,14.6-8.9,20.7-1.4,2.6-3.8,6.1-5.9,8.1-.2.2-.5.2-.6,0,0,0-.1-.1-.1-.2-.4-2.1-.4-4.1-.2-6.1,1.1-8.5,3.1-17.3,6.1-26.4,9.3-28.6,17.3-51.6,22.5-78.1,2.8-14.2,3.8-27.8,3.3-41.5,0-.4,0-.7,0-.8Z"/>
    <path class="st1" d="M522.8,713.5c.4-.1.8,0,.9.4,0,0,0,.2,0,.3-.7,10.8,0,21.9,1.7,33.1,1.8,11,3.5,19.5,5.3,25.6,1.7,5.7,2.3,10.1,4.3,16.8,1.4,4.8,3.9,12.8,7.3,24.1,0,.4.2.7.4,1,1.5,3,2.6,6,3.2,9.1,0,.3.2.7.3,1,1.9,4.5,2.6,9,4.3,13.7,2.9,8.3,4.6,16.7,5.1,25.1,0,1,0,1.8-.3,2.6-.1.4-.5.6-.8.5-.1,0-.2,0-.3-.2-2.8-2.7-4.3-5.9-6.2-9.1-2.3-4-3.8-8.2-6-12.3-.2-.3-.5-1.5-.9-3.6,0-.3-.2-.7-.4-.9-.9-1.4-1.8-3.8-2.9-7.3-.4-1.3-1.8-5.5-4.2-12.7-1.2-3.4-2.5-7.7-4.1-12.7-4.4-13.7-8.3-24.9-11.7-33.6-4.7-12.1-10.6-24.8-18.5-34.9-.2-.3-.2-.7.1-1,0,0,0,0,0,0,9.7-6.1,17.4-14.4,23-24.7.1-.2.2-.4.3-.4Z"/>
    <path class="st1" d="M318.8,748.2c.2-.2.6-.2.8,0,0,0,0,0,0,0,3.5,4.5,6.3,9.5,8.2,15.2,3.1,9.1,5.4,18.4,7,28,1.4,7.8,3.1,19.5,3.9,28.2,3,31.8,3.9,62.9,2.9,93.3-.5,13.1-1.4,28.3-2.8,45.6-.4,5.1-1,9.8-1.7,14.2-1,6.1-1.4,12.1-2.7,18.9-3.6,19.5-6.6,34.1-14,49.8-3.5,7.4-8.9,15.5-17.2,17.5-1.2.3-2.4,0-3.3-.8-6.7-5.7-11.1-13.8-14-21.9-5.9-16.3-8.5-33.6-10-50.8-1.5-17.2-1.9-34.5-1.4-51.7,1-34.7,4.7-68.5,11.2-101.5,2.1-10.5,4.6-21.1,7.7-31.7,4.1-14.3,9.1-27.9,16.6-40.4,2.2-3.8,5.2-7.6,8.9-11.6Z"/>
    <path class="st1" d="M520.1,818c.2.5,1,4,2.4,10.5,1.2,5.6,2.2,10.8,3.1,15.6,1,5.4,1.8,9.9,2.2,13.3.7,5.9,2,11.3,2.8,17.8,4.9,42,6.5,84.2,1.1,125.5-1.5,11.9-4.1,23.1-7.6,33.4-3,8.8-7.2,17.1-13.7,23-.9.8-1.9,1.4-2.8,1.6-.3,0-.7,0-1,0-6.6-1.3-11.3-6.5-14.5-11.8-7.4-12.2-11.3-26.4-14.3-40.7-3-14.2-5.4-29.8-7.1-46.9-4.6-46.9-4.6-93.9,0-141.3,1.5-14.7,3.8-28.7,6.9-42.1,1.5-6.4,3.6-12.6,6.2-18.7,1.5-3.4,3.6-6.4,5.6-9.2.2-.2.5-.3.8-.1,0,0,0,0,0,0,4.6,4.8,8.5,10.2,11.7,16.3,3.2,6.1,5.4,10.9,6.5,14.5,1.3,3.9,2.1,6.4,2.6,7.3.9,2,1.6,4.1,1.9,6.3.1.6.5,1.8,1.1,3.3.5,1.2.9,2.3,1.1,3.3,1.5,6.1,2.6,10.3,3.3,12.6,0,.3.2.5.3.8.9,1.3,1.2,2.8,1,4.3,0,.4,0,.9.2,1.2Z"/>
    <path class="st1" d="M347.3,797.3c2.2,3.4,5.7,9.1,10.6,17,8.5,14,17.3,27.1,26.2,39.3.9,1.3,1.5,2.8,1.6,4.3.3,4.2.5,7.8.5,10.7,0,28.3-2.3,58.2-6.7,89.8-.8,5.6-2.1,11.7-4,18.5-.5,1.9-1.5,3.6-2.9,5.3-.3.4-.8.4-1.2.1-.2-.1-.3-.3-.3-.5-.4-2.3-1.1-4.8-1.4-6.8-1.7-13.5-3.6-26-7.8-37.9-1.5-4.3-5.1-10.1-6.9-14.1-1.5-3.1-1.1-8.7-.9-12.8,2.1-38.5-.7-75.8-7.5-112.7,0-.2.1-.4.3-.4.1,0,.3,0,.4.2Z"/>
    <path class="st1" d="M462.1,797.2c.1-.2.4-.2.5-.1.1,0,.2.2.2.4-6.9,36.8-9.6,74.2-7.5,112.7.2,4.1.6,9.7-.9,12.8-1.9,4-5.4,9.8-6.9,14.1-4.2,12-6.1,24.5-7.9,37.9-.3,2.1-1,4.6-1.4,6.8,0,.5-.5.8-1,.7-.2,0-.4-.1-.5-.3-1.4-1.7-2.3-3.5-2.9-5.3-1.9-6.7-3.2-12.9-4-18.5-4.4-31.6-6.7-61.5-6.7-89.8,0-3,.2-6.5.5-10.7.1-1.6.7-3,1.6-4.3,9-12.3,17.7-25.4,26.2-39.4,4.9-8,8.4-13.6,10.6-17Z"/>
    <path class="st1" d="M267.3,865.8c.1,1.9,0,3.8-.2,5.7,0,.8-.9,11.1-2.5,30.8-2.4,29.3-3.3,59.5-.7,88.2.6,6.4,1.8,14.2,3.6,23.5,1.5,7.8,3.9,15.6,7.1,23.3,5.6,13.5,10.1,27.1,12.6,41.5,1.9,10.7,3.1,26.7-3.8,35.3-2.2,2.7-5.2,1.4-7.7-.7-9.4-8.1-14.8-22-18.5-34-3.3-10.7-5.9-22-7.8-33.8-6.4-39.2-7.9-78.5-4.5-117.8.9-9.6,2.6-20.1,4.8-29.8,1.6-7,3.9-13.7,6.9-20.1,2.3-4.9,5.5-9,9.6-12.4.2-.2.6-.1.7,0,0,0,.1.2.1.3Z"/>
    <path class="st1" d="M542,866c0-.3.3-.5.6-.5.1,0,.2,0,.3.1,4.1,3.4,7.3,7.5,9.6,12.4,3,6.4,5.3,13.1,6.9,20.1,2.2,9.7,3.9,20.2,4.8,29.8,3.4,39.2,2,78.4-4.5,117.6-1.9,11.8-4.5,23.1-7.8,33.8-3.7,12-9.1,25.9-18.5,34-2.5,2.1-5.5,3.5-7.7.7-6.8-8.6-5.6-24.6-3.7-35.2,2.5-14.4,7-27.9,12.6-41.4,3.2-7.7,5.6-15.5,7.1-23.3,1.8-9.2,3-17.1,3.6-23.4,2.6-28.7,1.7-58.8-.6-88.1-1.6-19.7-2.4-29.9-2.5-30.8-.2-1.9-.3-3.8-.2-5.6Z"/>
    <path class="st1" d="M351.4,937c.2.2.4.6.6,1,.9,2.5,2.2,7.1,3.8,13.7,4.1,16.4,7.8,36.4,11.1,60,1.9,13.3,1.9,22.1,1.8,36.8-.2,18.1-1.6,36.6-4.3,55.4-1.9,13.1-8.6,51.7-28.2,50.3-4-.3-8.4-1.8-13.4-4.7-24.3-13.9-23.7-46.4-11.3-68.3,1.9-3.4,4.9-7.9,9.1-13.6,1.4-2,3.7-6,6.8-11.9,4.3-8.2,8.1-17.8,11.3-28.9,8.6-29.3,12.6-59.1,12-89.4,0-.2.2-.4.4-.4.1,0,.2,0,.3.1Z"/>
    <path class="st1" d="M457.9,937.2c.2-.2.4-.2.6,0,0,0,.1.2.1.3-.6,30.3,3.4,60.1,12,89.4,3.2,11,7,20.7,11.3,28.8,3.1,5.9,5.4,9.9,6.8,11.9,4.1,5.7,7.2,10.3,9.1,13.6,12.4,21.8,13,54.4-11.3,68.2-5,2.8-9.4,4.4-13.4,4.7-19.6,1.5-26.4-37.1-28.2-50.2-2.7-18.8-4.1-37.2-4.3-55.3-.2-14.6,0-23.4,1.8-36.7,3.3-23.6,7-43.6,11-60,1.6-6.6,2.9-11.1,3.8-13.7.2-.4.3-.8.6-1Z"/>
    <path class="st1" d="M255.8,1235.8c0-.2.2-.2.4-.2,0,0,.2.1.2.2,1.3,5.1,2.6,10.8,4.1,17,3.6,15.7,9,31.3,18.9,44.8,2.3,3.1,3.9,5.7,4.8,7.8,1.4,3.4,2.5,6.2,3.1,8.6,3.1,11.5,5.5,23.6,7.2,36.3,2.2,16.5,3.7,30.2,4.6,41.2,1,11.5,2.8,34.6,3.4,48.4,1.5,32.8,2.9,66.6,2.6,100,0,8.4-.5,16.4-1.2,24,0,1-.2,1.7-.4,2.1-.3.7-1.1,1-1.8.8-.3-.1-.6-.4-.7-.7-2.3-4.8-4.8-11.4-6.2-17.1-.9-3.7-2.5-6.6-3.2-9.8-.9-4.1-2.1-8.1-3.7-12,0-.2-.1-.5-.1-.7v-.9c0-.3,0-.5-.1-.8-1-2.9-1.7-5.3-2.2-7.3-.9-3.8-1.5-6.3-2-7.4-.7-1.9-1.7-5-2.8-9.3-.3-1-2-6.3-5.3-15.7-1.2-3.5-3.3-8.7-6.3-15.4-9.5-21.5-15.3-45.6-18.9-69-5.4-35.6-7-71.8-4.7-108.6.7-10.7,2.1-23,4.2-33.8,1.6-8.4,3.6-15.9,6.1-22.5Z"/>
    <path class="st1" d="M553.5,1236c1.1,2.5,2.5,6.8,3.2,9.5,3.2,13,5.2,25.3,6.2,36.7,3.9,44.9,1.7,89.4-6.5,133.5-1.7,8.9-4.1,18.7-7.2,29.2-2.5,8.6-5.4,16.4-8.5,23.4-6.6,14.8-11.4,29.1-15.5,43.4-7.7,26.9-11.8,41.1-12.3,42.7-1.6,4.9-3.1,8.6-4.3,11-.4.7-.8,1.2-1.3,1.3-.6.2-1.4-.1-1.6-.8,0,0,0-.2,0-.3-.9-6.6-1.3-13.4-1.4-20.2-.2-18.8,0-35.6.4-50.3,1.3-38.1,2.3-60.4,2.8-66.9,1.5-18.6,2.4-35.3,4.4-53.4,2.2-19.1,3.5-29.3,6.5-45.3,1.6-8.4,3.7-16.2,6.5-23.5.6-1.6,2.1-4.4,3.5-6.3,7.2-9.4,12.6-20,16.2-31.8,3.2-10.3,5.8-21,7.9-32,0-.3.4-.5.7-.4.2,0,.3.2.4.3Z"/>
    <path class="st1" d="M339.1,1258c0-.2.2-.3.4-.2.1,0,.2.1.2.2.7,1.9,1.4,4,2,6.3,8.4,30.7,11.8,62.2,10.1,94.6-1.2,23.7-6,46.7-14.3,69.1-.1.3-.4.4-.7.3,0,0-.2,0-.2-.2-.4-.4-.6-.8-.8-1.3-1.8-6.4-2.8-13.8-3.2-22.2-1.6-41.2-.6-83.9,3.1-128.2.5-6.3,1.6-12.4,3.3-18.4Z"/>
    <path class="st1" d="M470.2,1258.2c1.6,5.9,2.7,12,3.3,18.3,3.7,44.2,4.8,86.9,3.2,128-.3,8.4-1.4,15.8-3.2,22.2-.1.5-.4.9-.8,1.3-.2.2-.6.2-.8,0,0,0-.1-.1-.1-.2-8.3-22.4-13.1-45.4-14.3-69-1.7-32.3,1.7-63.8,10.1-94.5.6-2.3,1.3-4.4,2-6.3,0-.2.3-.3.4-.2.1,0,.2.1.2.2Z"/>
  </g>
  <path class="st0" d="M404.5,0c34.2,0,77.7,26.3,78.9,64.1,0,1.6-.3,5.5-1,11.5-.8,6.6.7,13.1,4.5,19.5.2.3.3.7.5,1,3,9.9,3.2,19.7.5,29.4-2,7.2-7.7,13.7-13.4,19.3-1.1,1-2.3,2.8-3.8,5.3-.2.3-.3.5-.4.8-2.5,7.5-4.1,12-4.6,13.2-4,9.2-7,18.2-9.1,27.1-.6,2.4-.7,5.9-.6,10.6.5,11.1,5.3,20.2,14.6,27.3,13.7,10.3,29.3,17.2,46.1,24.6,8.7,3.8,22.6,9.8,41.9,18,14.1,6,23.6,10.6,28.5,13.8,34.4,22.9,44.3,60.9,43.9,100.3-.2,15.1-1.4,30.1-3.8,44.9-.2,1.2.1,2.4.8,3.3,2.8,3.7,5.8,7.9,8.8,12.6,15.1,23,21.5,50.4,23.5,78.1,0,1.3.7,2.4,1.8,3.2,17.3,12.9,31.5,28.7,42.6,47.5,3.9,6.5,6.9,13.9,8.9,21.6,1.8,6.9,4.4,17.3,8,31.4,4.6,18.2,10.1,35.9,16.8,53.5,1.4,3.7,3.7,8.4,6.8,13.8,4.6,8,9.1,17.3,13.6,27.9.5,1.1,1.3,2,2.4,2.5,13,6.4,25.1,14.1,36.3,23.3,5.5,4.6,17.4,16.2,8.4,23.3-4.2,3.3-14.9-5.4-18.6-8.1-.3-.2-.6-.1-.8.1-.1.1-.1.3,0,.5,1.3,4,2.9,8,4.7,11.9,5,10.7,7.6,16.7,8.1,18,1.3,4.1,2.3,8.5,3.1,13.1,1.9,10.8-4.5,19.3-14.4,23.4-5.4,2.3-11.7,3.6-18.9,4-8.2.5-17.7,0-26-1.5-4.9-.8-7-2.9-9.4-7.5-10.1-19.5-17.1-39.9-19.1-61.6-.5-4.8-.4-9.5,0-14,0-.7,0-1.5-.4-2.2-3.3-6.5-7.4-15.7-11.4-22.7-9.1-15.8-20-30.5-32.9-44-7.9-8.4-17.4-17.5-28.4-27.4-6.2-5.6-12.3-12.1-18.3-19.4-19.5-23.8-28.5-51.2-27.2-82.2.2-4.3-3.1-9.3-6-12.5-3.2-3.5-7.3-8-12.2-13.6-7.6-8.6-12.7-18.3-15.4-29.2,0-.4-.5-.6-.8-.5-.2,0-.4.2-.5.4-10.1,20.9-22,40.7-35.5,59.2-.3.4-.5.8-.6,1.2-2,5.4-2.7,11.5-2.1,18.3,1,12.3,2.9,22.8,5.6,31.6,2,6.5,3.8,12.4,5.3,17.7,4,14,5.2,27.9,3.6,41.7-1,8.5-3.9,18.5-4.9,27-2,15.9-1.6,31.9,1,48,1.6,10,3.9,20.7,6.9,32,1.8,7,7.4,25.9,16.6,56.6,1.8,6,4.2,15.3,7.3,27.9,2.6,10.5,4.5,19.9,5.9,28.2,1.7,10.1,3.1,21.1,4.3,33.1,1.4,13.8,1.4,29.9,1.1,46.7-.4,27-1.9,49.9-4.4,68.8-2,14.7-4.6,28.4-7.9,41.1-4.5,17.6-7.3,28.8-8.3,33.7-.4,2.1-1.5,8.3-3.1,18.4-1.6,9.9-1.7,19.7-.2,29.3,3,19.7,7.3,37.7,11.5,57.9,9.3,44.6,13.7,88.8,11.1,134.5-.2,2.8-1.1,12.8-2.9,29.8-.6,5.4-2.1,15.1-4.7,28.9-1.4,7.8-3.6,17.3-6.6,28.6-3.3,12.6-7.5,29.6-12.8,51.1-4.7,19.2-8.3,36.5-10.7,51.8-1.8,11.5-2.8,22.3-3.1,32.3-.3,10.1.8,19.1,3.3,27,.9,2.8,2.9,6.6,6.1,11.4,9.8,14.9,23.7,27.2,39.1,37.5,18.2,12.2,27.6,18.5,28.3,19,5.5,4,9.5,7.4,12.2,10.1,2.1,2.2,3.9,4.8,1.8,7.6-3.2,4.3-8.5,6.1-14.1,7.8-4,1.2-7.8,2-11.5,2.5-30.9,4.2-61.9.9-92.8-9.9-5.8-2-12.5-3.2-20-3.4-5.9-.2-9.5-.4-10.9-.8-6.9-2-10.6-7-11.3-15.1-.4-5-.4-10,0-15,.7-9.5,1.6-20.3,2.6-32.4,4.4-51.5,6.4-102.5,6.1-152.9,0-3.1-.9-8.3-2.6-15.7-1-4.5-3.9-13.4-8.5-26.5-7.3-20.7-12.9-43.1-13.4-66.2-.5-21.9,1.3-43.1,5.1-64.6,2.2-12.5,5.2-26.3,8.9-41.5.6-2.3,1.2-5.6,1.8-10,.7-4.8.4-8-1.5-12.7-5.1-12.6-9.3-25.7-12.5-39.3-3.5-14.6-6-27.7-7.7-39.5-1.9-13.4-3.1-20.8-4.1-31.4-.2-2.4-.9-9.8-2.2-22.4-1-9.5-2.3-32.2-3.9-68-.2-4-1.1-11.6-2.9-22.7-5.4-34.5-9.2-62.5-11.7-83.8-1.5-13.1-2.5-25.1-3-36-.5-9.7-.5-17.6-.2-23.5,0-.5-.4-.9-.9-1,0,0,0,0-.1,0-2.3.1-4.7.5-7.1,1.2,0,0-.3,0-.7,0-.5,0-.7,0-.7,0-2.4-.7-4.8-1.1-7.1-1.2-.5,0-.9.4-1,.9,0,0,0,0,0,.1.3,6,.3,13.8-.2,23.5-.5,10.9-1.5,22.9-3,36-2.4,21.3-6.3,49.3-11.7,83.8-1.7,11.2-2.7,18.7-2.9,22.7-1.7,35.8-3,58.5-3.9,68-1.2,12.6-2,20-2.2,22.4-1,10.6-2.2,18-4.1,31.4-1.7,11.8-4.2,25-7.7,39.5-3.2,13.6-7.4,26.7-12.5,39.3-1.9,4.8-2.2,7.9-1.5,12.7.6,4.4,1.2,7.7,1.8,10,3.7,15.2,6.7,29,8.9,41.5,3.8,21.5,5.6,42.8,5.1,64.6-.5,23.1-6.2,45.5-13.4,66.2-4.6,13.1-7.4,22-8.5,26.5-1.7,7.4-2.6,12.6-2.6,15.7-.3,50.5,1.7,101.4,6.1,152.9,1,12.1,1.9,22.9,2.6,32.4.4,5,.4,10,0,15-.7,8.1-4.5,13.1-11.3,15.1-1.4.4-5,.7-10.9.8-7.5.2-14.2,1.3-20,3.4-30.9,10.8-61.9,14.1-92.8,9.9-3.7-.5-7.6-1.4-11.5-2.5-5.6-1.7-10.9-3.5-14.1-7.8-2.1-2.8-.3-5.4,1.8-7.6,2.7-2.7,6.7-6,12.2-10.1.7-.5,10.1-6.8,28.3-19,15.3-10.2,29.2-22.6,39.1-37.5,3.2-4.8,5.2-8.6,6.1-11.4,2.5-7.9,3.6-16.9,3.3-27-.3-10-1.3-20.7-3.1-32.3-2.4-15.3-6-32.5-10.7-51.8-5.3-21.5-9.6-38.5-12.8-51.1-2.9-11.3-5.1-20.8-6.6-28.6-2.6-13.9-4.1-23.5-4.7-28.9-1.7-17-2.7-26.9-2.9-29.8-2.5-45.8,1.8-90,11.1-134.5,4.2-20.2,8.6-38.2,11.5-57.9,1.4-9.6,1.4-19.4-.2-29.3-1.6-10.1-2.7-16.2-3.1-18.4-1-4.9-3.8-16.1-8.3-33.7-3.3-12.7-5.9-26.4-7.8-41.1-2.5-18.9-4-41.9-4.4-68.8-.3-16.8-.3-32.8,1.1-46.7,1.2-12,2.6-23,4.3-33.1,1.4-8.4,3.4-17.8,5.9-28.2,3.1-12.6,5.5-21.9,7.3-27.9,9.2-30.7,14.7-49.6,16.6-56.6,3-11.3,5.3-21.9,6.9-32,2.6-16.1,2.9-32.1,1-48-1-8.5-3.9-18.5-4.9-27-1.6-13.8-.4-27.7,3.6-41.7,1.5-5.2,3.3-11.1,5.3-17.7,2.7-8.8,4.6-19.3,5.6-31.6.6-6.8-.1-13-2.1-18.3-.2-.4-.4-.8-.6-1.2-13.5-18.5-25.4-38.2-35.5-59.2-.2-.3-.6-.5-.9-.3-.2,0-.3.3-.4.5-2.6,10.9-7.8,20.7-15.4,29.2-4.9,5.5-9,10-12.2,13.6-3,3.3-6.2,8.3-6,12.5,1.4,31-7.7,58.3-27.2,82.1-6,7.3-12.1,13.8-18.3,19.4-11,9.9-20.4,19-28.4,27.4-12.9,13.6-23.9,28.2-32.9,44-4,6.9-8.1,16.2-11.4,22.7-.3.7-.5,1.4-.4,2.2.5,4.5.5,9.1,0,14-2,21.7-9,42.1-19.1,61.6-2.4,4.6-4.5,6.6-9.4,7.5-8.3,1.4-17.9,1.9-26,1.5-7.2-.4-13.5-1.7-18.9-4-9.9-4.1-16.3-12.6-14.4-23.4.8-4.6,1.8-8.9,3.1-13.1.4-1.3,3.1-7.3,8.1-18,1.8-3.9,3.4-7.9,4.7-11.9,0-.3,0-.6-.4-.7-.2,0-.4,0-.5,0-3.7,2.8-14.4,11.5-18.6,8.1-9-7.2,2.8-18.8,8.4-23.3,11.2-9.2,23.2-17,36.3-23.3,1.1-.5,1.9-1.4,2.4-2.5,4.5-10.6,9-19.9,13.6-27.9,3.1-5.5,5.4-10.1,6.8-13.8,6.7-17.6,12.2-35.3,16.8-53.5,3.5-14,6.2-24.5,8-31.4,2-7.7,5.1-15.1,8.9-21.6,11.1-18.7,25.3-34.6,42.6-47.5,1-.8,1.7-1.9,1.8-3.2,2-27.7,8.5-55.1,23.5-78.1,3-4.6,6-8.8,8.8-12.6.7-.9,1-2.1.8-3.3-2.4-14.8-3.7-29.8-3.8-44.9-.4-39.4,9.5-77.4,43.9-100.3,4.9-3.2,14.4-7.9,28.5-13.8,19.2-8.2,33.2-14.2,41.9-18,16.8-7.4,32.4-14.3,46.1-24.6,9.3-7,14.2-16.1,14.6-27.3.2-4.7,0-8.2-.6-10.6-2.1-8.9-5.2-18-9.1-27.1-.6-1.3-2.1-5.7-4.6-13.2,0-.3-.2-.6-.4-.8-1.5-2.5-2.8-4.3-3.8-5.3-5.7-5.6-11.4-12.1-13.4-19.3-2.6-9.8-2.5-19.6.5-29.4.1-.4.3-.7.5-1,3.8-6.4,5.3-12.9,4.5-19.5-.7-6.1-1.1-9.9-1-11.5C326.9,26.3,370.4,0,404.5,0ZM404.7,313c.2,0,.3,0,.3,0,13.3-6.4,22.4-23.4,28.1-36.5,5.5-12.9,9.9-27,13.2-42.3,1.1-4.9,1.9-10.3,2.4-16.2,0-.7,0-1.4-.2-2,0-.2-.3-.4-.6-.3-.1,0-.2,0-.2.2-2.6,4.2-5.1,7.8-8.8,10.8-3.6,3-8,7.4-9.1,11.5-1.2,4.5-2.5,11.7-3.8,21.5-.7,5.1-2.3,11.4-3.4,15.7-2.9,11.1-8.5,22.1-17,30.2-.2.2-.5.3-.8.3s-.6-.1-.8-.3c-8.6-8.1-14.1-19.1-17-30.2-1.2-4.4-2.7-10.7-3.4-15.7-1.4-9.8-2.6-17-3.8-21.5-1.1-4.1-5.5-8.5-9.1-11.5-3.7-3-6.2-6.6-8.8-10.8-.1-.2-.4-.3-.6-.1,0,0-.2.1-.2.2-.2.6-.2,1.3-.2,2,.5,5.9,1.3,11.3,2.4,16.2,3.3,15.3,7.7,29.4,13.2,42.3,5.6,13.1,14.7,30,28.1,36.5,0,0,.2,0,.3,0ZM275.7,272.7c4,1,7.9,1.5,12.1,2.7,9.6,2.6,23.1,6.5,40.6,11.7,4.9,1.4,10.6,2.9,17.1,4.5,6.8,1.6,29,4.2,23.1-10.4-3.5-8.6-6.4-17.1-8.7-25.4-2.5-8.9-3.5-16.7-5.3-25.5,0-.5-.6-.8-1-.7-.1,0-.2,0-.3.1-9.5,7-19.3,13.3-29.4,18.7-15,8.1-31.1,15.9-48.2,23.5-.2,0-.3.3-.2.5,0,0,.1.2.2.2ZM533.6,272.7c.2,0,.3-.3.3-.5,0-.1-.1-.2-.2-.2-17.1-7.5-33.1-15.3-48.1-23.5-10.1-5.5-19.9-11.7-29.4-18.7-.4-.3-.9-.2-1.2.2,0,0-.1.2-.1.3-1.8,8.8-2.8,16.5-5.3,25.5-2.3,8.3-5.2,16.8-8.7,25.4-5.9,14.6,16.3,12,23.1,10.4,6.5-1.6,12.2-3,17.1-4.5,17.5-5.1,31-9,40.5-11.6,4.3-1.2,8.1-1.7,12.1-2.7ZM188.9,420.7c0,.2.3.4.5.3,0,0,0,0,.1,0,16.7-10.2,31.2-25.8,42.2-42.1,2.2-3.3,5.2-8.7,9-16.1,11.1-21.7,25.9-43,44.2-59.3,6.1-5.4,12.7-9.6,19.8-12.7.2,0,.2-.3.2-.4,0,0,0-.1-.2-.2-16.8-8.5-38.1-12.5-55.7-8.3-17.3,4.1-31.4,13.5-42.3,28.2-18.1,24.3-23.5,56.2-21.3,85.7.6,8.1,1.5,16.7,3.5,25ZM620.5,420.8c2-8.4,2.8-16.9,3.4-25,2.2-29.5-3.2-61.4-21.3-85.7-10.9-14.7-25.1-24.1-42.4-28.2-17.7-4.2-39-.1-55.7,8.4-.2,0-.2.3-.2.4,0,0,0,.1.2.2,7.1,3.1,13.8,7.3,19.8,12.7,18.4,16.3,33.2,37.6,44.3,59.3,3.8,7.5,6.8,12.8,9,16.1,11,16.3,25.5,31.9,42.2,42.1.2.1.4,0,.6-.1,0,0,0,0,0-.1ZM398.9,428.5l.9-.8c.1-.1.2-.3.2-.4,0-30,0-59.7,0-89.2,0-5.2-.4-8.9-1.3-11.2-1.9-5-5.1-9.1-9.7-12.3-3.9-2.8-10.6-4.8-15.9-6.7-14.2-4.9-28.7-9-43.4-12.4-5.7-.8-10.9-.5-15.7.9-19.3,5.7-35.5,21.5-46.9,38.1-5.1,7.4-9,13.6-11.5,18.5-8,15.2-17.1,29-25.4,41.1-.1.2,0,.5.1.7,0,0,.1,0,.2,0,13.9.9,27.6,3.8,35.2,15.9,2.3,3.6,3.8,5.9,4.6,6.9,10.9,13.1,25.1,19.6,42.4,19.6,3.3,0,9.5-.9,18.7-2.6,15.2-2.9,31.3-4.6,48.2-5.2,6.5-.2,12.9-.5,19.1-.9ZM576,394.4h.8c.3-.1.6-.4.5-.8,0,0,0-.2,0-.3-10.1-14.9-17-25.2-24.1-38.9-7-13.4-15.6-25.6-25.7-36.5-9.7-10.4-22.7-19.9-37-22.4-4.5-.7-9.1-.4-13.8.6-17.1,3.9-33.6,8.9-49.7,15-8.3,3.1-14.8,7.9-18,15.9-.9,2.3-1.4,5.9-1.4,11,0,21.8,0,51.8,0,89.9s.4,1,1,1h0c20.6,0,40.8,1.6,60.8,4.7,5.8.9,12.9,2.9,18.9,3.3,20,1.4,36.1-5.2,48.5-19.9,3.3-3.9,5.1-8.9,8.7-12.1,4.2-3.7,8.6-6.2,13.1-7.4,5.5-1.4,10.9-2.4,16.2-3,.6,0,.9-.1,1.1-.2ZM247.6,421.2c.8-4.2,1-9.3-2.9-11.4-6.8-3.7-14-3.7-20.6.1-2.4,1.4-4.1,2.4-5,3.2-10.2,8.5-15.9,13.2-17.1,14.2-2.9,2.3-7.5,4.7-10.3,7.4-6.9,6.8-11.9,15.2-16,24-8.4,17.9-13.8,36.6-16.4,56.2-1.4,10.4-1.7,22.7,2.1,32.6,4.9,12.9,17.1,14.5,27.3,6.9,19.7-14.7,35.9-36.1,44.4-58.8,4.2-11.1,5.9-22.5,5.1-34.1,0-1.3.2-4.2.6-6.3,2.1-9.8,6.6-22.5,8.8-34.1ZM568.2,445.9c.5,2.1,1.1,4.6,1.9,7.4,0,.3.1.6.2.9.3,3.9.4,6.2.4,6.9-1.8,20,6.8,42.1,17.7,58.7,8.4,12.7,18.3,23.7,29.7,32.9,3.3,2.6,6.5,4.5,9.6,5.6,5.6,2,12.7.5,16.6-4.2,3.8-4.6,5.8-11.7,6.2-16.9.7-9.4.3-18.5-1.1-27.4-3.2-19.9-9.3-38.7-18.3-56.3-1.1-2.2-2.7-4.9-4.7-7.9-3.8-5.7-7.9-11-12.7-14-9.4-5.8-16.9-13.7-25.7-20-7.5-5.4-15.3-6-23.3-1.7-4.5,2.4-3.5,9.1-2.6,13.1,1,4.6,2.5,9.9,4.2,15.6.9,2.8,1.5,5.2,2,7.3ZM258.7,420.3c-.5,6.5-1.9,12.9-4.1,19.4-1.5,4.3-3,9.4-4.4,15.3-.6,2.2-.6,5.2,0,8.9,3.5,25.7,13.1,48.7,28.6,69.1,2.2,2.8,4.1,5.1,5.9,6.8.2.2.5.2.7,0,0,0,.1-.2.1-.3,0-8.2-3.1-15.5-5-23.2-1-4-.6-7.3,1-10,2.7-4.3,4.4-7.2,5.2-8.8,3.1-6.1,4.8-12.9,5.2-20.1.5-10.1,0-20.3-1.7-30.5,0-.5-.5-1-1-1.1-2.3-.7-4.4-1.7-6.4-3-9.4-6-17.2-13.5-23.5-22.6,0-.1-.3-.2-.4,0,0,0-.1.1-.1.2ZM550.5,420.3c0-.2-.1-.3-.3-.3,0,0-.2,0-.2.1-6.3,9.1-14.1,16.6-23.5,22.6-2,1.3-4.2,2.3-6.4,3-.5.2-.9.6-1,1.1-1.6,10.2-2.2,20.4-1.7,30.5.3,7.3,2.1,14,5.2,20.1.8,1.5,2.5,4.5,5.2,8.8,1.7,2.7,2,6,1,10-1.9,7.7-5,15-5,23.2,0,.3.2.5.5.5.1,0,.2,0,.3-.1,1.8-1.7,3.7-4,5.9-6.8,15.6-20.3,25.1-43.4,28.7-69.1.5-3.7.5-6.7,0-8.9-1.5-5.8-3-10.9-4.4-15.3-2.2-6.5-3.6-13-4.1-19.4ZM400.2,472.5v-32.2c0-1.1-.8-2.1-1.9-2.4-8.8-2.1-18.9-1.5-28.4-.6-16.2,1.6-31.9,3.9-47,7-6.6,1.3-10.8,2.4-12.7,3.4-9.4,4.7-10.8,17.1-8.9,26.9,1.6,8.1,4.3,15,8.2,20.9,3.1,4.6,7.9,10.2,13.2,10.5,2.2.1,3.8-.2,4.9-.9,13.5-8.7,26.9-17.4,41.8-24.5,9.8-4.6,19.9-7.1,30.2-7.6.3,0,.5-.2.5-.5ZM409.1,472.5c0,.3.2.5.5.5,10.3.4,20.4,2.9,30.2,7.6,14.9,7,28.3,15.8,41.8,24.5,1.1.7,2.7,1,4.9.9,5.3-.3,10.2-5.9,13.2-10.5,3.9-5.8,6.6-12.8,8.2-20.9,1.9-9.8.5-22.2-8.9-26.9-1.9-.9-6.1-2.1-12.7-3.4-15.1-3-30.8-5.4-47-7-9.4-.9-19.5-1.6-28.4.6-1.1.3-1.9,1.2-1.9,2.4v32.2ZM400.3,540.1v-57.3c0-.4-.3-.7-.7-.7,0,0,0,0,0,0-21.4,2.9-42.9,13.8-59.3,26.9-2.5,2-8,6.7-7.4,9.8,1.1,6,8,32.7,17.9,28.6,15.6-6.5,32.9-8.5,49.3-7,.2,0,.3-.1.3-.3,0,0,0,0,0,0ZM409.1,540.1c0,.2.1.3.3.3,0,0,0,0,0,0,16.4-1.5,33.7.5,49.3,7,9.9,4.1,16.8-22.6,17.9-28.6.6-3.1-5-7.8-7.4-9.8-16.4-13.1-37.9-24-59.3-26.9-.4,0-.8.2-.8.6,0,0,0,0,0,0v57.3ZM335.2,598c1.4-32.2-5.5-76.4-44.1-84.3-.3,0-.6.1-.7.4,0,.1,0,.2,0,.3,1.8,4.4,3.2,8.9,4.3,13.4,3.3,13.8,4.8,27.5,4.4,41,0,1.4,0,2.3.4,2.8,1.4,2.2,5,4.5,7.2,5.9,9.4,5.7,20.1,11.9,27.7,20.7.2.2.5.2.7,0,0,0,.2-.2.2-.3ZM474.2,597.9c0,.3.2.5.5.5.1,0,.3,0,.3-.2,7.5-8.8,18.2-15,27.6-20.7,2.2-1.4,5.7-3.7,7.2-5.9.3-.4.4-1.3.4-2.8-.4-13.5,1.1-27.1,4.4-40.9,1.1-4.5,2.5-9,4.2-13.4.1-.3,0-.6-.3-.7-.1,0-.2,0-.3,0-38.5,7.9-45.3,52-43.8,84.1ZM81.2,701.6c19.8-14.7,36.5-32.6,50-53.8,9.4-14.7,16.7-31.4,19.7-48.6,1.6-9.2,3.6-19.4,4-30.7.4-11.1-2.3-15.7-12.3-20.6-.6-.3-1.4-.3-2,.1-3.5,2.2-6.5,4.6-9.1,7.1-12,11.8-20.8,24.9-26.5,39.3-2,5.2-3.2,10.1-3.5,14.6-.6,9.8-1.4,20.1-4,30.5-4.3,16.8-10,32.8-17.2,47.9-3.1,6.5-6.6,12.6-10.7,18.2-.3.5-.2,1.1.2,1.4.1.1.3.2.5.2.3,0,.9-.1,1.6-.4,3.2-1.3,6.2-3.1,9.1-5.2ZM728.3,701.7c2.9,2.2,5.9,3.9,9.1,5.2.7.3,1.3.4,1.6.4.6,0,1-.6.9-1.1,0-.2,0-.4-.2-.5-4.1-5.7-7.6-11.8-10.7-18.3-7.2-15.2-13-31.1-17.2-48-2.6-10.4-3.5-20.7-4.1-30.5-.3-4.5-1.4-9.3-3.5-14.6-5.7-14.4-14.5-27.6-26.6-39.3-2.6-2.5-5.6-4.9-9.1-7.1-.6-.4-1.3-.4-2-.1-10,4.9-12.6,9.6-12.3,20.7.4,11.3,2.4,21.5,4,30.8,3,17.2,10.4,33.9,19.8,48.6,13.5,21.1,30.2,39.1,50.1,53.8ZM400.2,625.8v-75.9c0-.3-.2-.6-.5-.6-2.6-.5-5.2-.8-7.7-.9-8.7-.1-18.3.5-26.6,3.3-3,1-4.9,1.8-5.7,2.3-19.7,13.1-17,46.5-5,63.5,3.1,4.4,8.6,8.6,13.8,8.6,8.7.1,19.1.1,31.2,0,.2,0,.4-.2.4-.4ZM409.1,625.8c0,.2.2.4.4.4,12.2.1,22.6.1,31.2,0,5.3,0,10.7-4.2,13.8-8.6,12-17,14.8-50.4-4.9-63.5-.7-.5-2.6-1.3-5.7-2.3-8.3-2.8-17.9-3.4-26.6-3.3-2.5,0-5.1.3-7.7.9-.3,0-.5.3-.5.6v75.8ZM604.7,557.4c-1.2,21.5,3.9,41.2,15.3,59.1,8.1,12.6,17.9,24.2,29.4,34.6,8.4,7.6,15.8,14.7,22.2,21.4,17.5,18.1,32.3,38.3,44.4,60.4.3.6.8,1.1,1.4,1.4,9.9,5.4,21.3,2.2,28.3-5.9.3-.4.3-.9,0-1.3,0,0,0,0,0,0-25-19.3-48.8-39.8-67.4-63.2-17.1-21.5-27.5-44.6-30.8-71.2-1.1-8.5-1.8-16.6-2.3-24.2,0-.4-.3-.6-.7-.6,0,0-.2,0-.2,0-11,5.7-24.2,3.6-33.4-4.7-2.2-1.9-4-3.9-5.6-6,0-.1-.3-.2-.4,0,0,0-.1.1-.1.2ZM204.6,557.5c0-.1-.1-.3-.3-.3,0,0-.2,0-.2.1-1.5,2.1-3.4,4.1-5.6,6-9.2,8.3-22.5,10.4-33.4,4.7-.3-.2-.7,0-.9.3,0,0,0,.2,0,.2-.5,7.6-1.3,15.7-2.3,24.2-3.3,26.6-13.7,49.7-30.8,71.2-18.6,23.4-42.4,43.9-67.4,63.2-.4.3-.5.9-.2,1.2,0,0,0,0,0,0,7,8.1,18.4,11.3,28.3,5.9.6-.3,1.1-.8,1.4-1.4,12.1-22.1,26.9-42.3,44.4-60.4,6.5-6.7,13.9-13.8,22.2-21.4,11.6-10.5,21.4-22,29.4-34.6,11.4-17.9,16.5-37.6,15.3-59.1ZM330.4,655.2c.1-.2.2-.4.3-.7.8-3.7,1.2-8.5,1.4-14.1.1-3.2.2-10.3.4-21.3,0-6.6-6.4-13.4-11.5-17.5-7.7-6.1-16.3-12.1-26-17.7-.1,0-.3,0-.4,0,0,0,0,0,0,0-1.9,7.9-3.3,13.8-4.2,17.9-1,4.4-1.8,11.4,2.1,15.4,17,17.4,29.5,30,37.4,37.8.1.1.4.1.5,0,0,0,0,0,0,0ZM478.9,655.1c.1.1.3.2.5,0,0,0,0,0,0,0,8-7.8,20.5-20.4,37.4-37.7,3.9-4,3.1-11,2.1-15.4-.9-4.1-2.3-10.1-4.2-17.9,0-.2-.2-.3-.4-.2,0,0,0,0,0,0-9.6,5.6-18.3,11.5-25.9,17.7-5.1,4.1-11.5,10.8-11.5,17.4.1,11,.2,18,.3,21.2.2,5.7.6,10.4,1.4,14.1,0,.3.2.5.3.7ZM335.4,738.1c2-16.8-.7-34-4.8-50.5-1-4.3-2.2-8.1-3.4-11.5-.4-1-.8-1.9-1.3-2.8-10.8-17.4-24.9-31.4-40-46.6-.1-.1-.4-.1-.5,0,0,0,0,0,0,.1-5.9,12.9-6.8,28.9-4.6,42.6.2,1,.4,2,.8,3,9.6,26.6,26.3,54.3,52.9,66.3.4.2.8,0,1-.4,0,0,0-.1,0-.2ZM473.9,738.1c0,.4.4.7.8.6,0,0,.2,0,.2,0,26.7-12,43.3-39.7,52.9-66.3.4-1,.6-1.9.8-3,2.2-13.7,1.3-29.7-4.6-42.6,0-.2-.3-.3-.5-.2,0,0,0,0-.1,0-15.2,15.3-29.2,29.2-40,46.7-.5.9-1,1.8-1.3,2.8-1.2,3.4-2.4,7.2-3.4,11.5-4,16.5-6.8,33.7-4.7,50.5ZM400.3,636c0-.2-.2-.4-.4-.4-11.7-1-22.9-.7-33.7.9-3.3.5-6,1.8-8,4-.3.3-.5.7-.6,1.2-2.7,10.3-4.2,21.7-4.5,34.2-.3,13.7.5,26.6,2.3,38.8,3.9,26.3,11.3,50.9,22.3,74,3.9,8.2,8.5,15.4,13.9,21.7,2,2.4,4.5,4.1,7.5,5.2.5.2,1,0,1.1-.5,0,0,0-.2,0-.3v-178.7ZM409.1,636v178.6c0,.5.4.9.9.9.1,0,.2,0,.3,0,3-1.1,5.5-2.8,7.5-5.2,5.3-6.2,10-13.5,13.9-21.7,11-23.1,18.4-47.7,22.3-74,1.8-12.2,2.6-25.2,2.3-38.8-.3-12.5-1.8-23.9-4.5-34.2-.1-.4-.3-.8-.6-1.2-2-2.2-4.6-3.5-8-4-10.7-1.6-21.9-1.8-33.6-.9-.2,0-.4.2-.4.4ZM285.7,713.6c0,.1,0,.4,0,.8.6,13.7-.5,27.3-3.3,41.5-5.2,26.5-13.2,49.5-22.5,78.1-3,9.1-5,17.9-6.1,26.4-.2,1.9-.2,4,.2,6.1,0,.2.3.4.5.4,0,0,.2,0,.2-.1,2.1-2,4.6-5.5,5.9-8.1,3.2-6,6.1-12.9,8.9-20.7,1.5-4.4,6.7-19.8,15.4-46.4,1.1-3.5,3.6-10,7.4-19.5,4.6-11.6,9.5-21.2,14.7-28.7,1.2-1.7,2.2-2.6,2.9-3.9.2-.3,0-.8-.2-1-9.8-6.1-17.5-14.4-23.2-25-.1-.2-.4-.3-.6-.2,0,0-.2.1-.2.2ZM522.8,713.5s-.1.1-.3.4c-5.6,10.3-13.2,18.5-23,24.7-.3.2-.4.6-.2,1,0,0,0,0,0,0,8,10.1,13.8,22.8,18.5,34.9,3.4,8.7,7.3,19.9,11.7,33.6,1.6,5,3,9.2,4.1,12.7,2.4,7.2,3.8,11.4,4.2,12.7,1,3.5,2,5.9,2.9,7.3.2.3.3.6.4.9.4,2,.7,3.2.9,3.6,2.2,4.1,3.7,8.3,6,12.3,1.9,3.2,3.4,6.4,6.2,9.1.3.3.7.3,1,0,0,0,.1-.2.2-.3.2-.8.3-1.7.3-2.6-.4-8.5-2.1-16.8-5.1-25.1-1.6-4.6-2.4-9.2-4.3-13.7-.1-.3-.2-.7-.3-1-.6-3.1-1.7-6.1-3.2-9.1-.2-.3-.3-.7-.4-1-3.4-11.3-5.8-19.3-7.3-24.1-2-6.7-2.7-11.1-4.3-16.8-1.8-6.1-3.6-14.6-5.3-25.6-1.8-11.3-2.4-22.3-1.7-33.1,0-.4-.3-.7-.7-.8,0,0-.2,0-.3,0ZM318.8,748.2c-3.7,4-6.7,7.8-8.9,11.6-7.4,12.5-12.4,26.2-16.6,40.4-3.1,10.6-5.7,21.2-7.7,31.7-6.5,32.9-10.2,66.7-11.2,101.5-.5,17.2,0,34.5,1.4,51.7,1.5,17.2,4.1,34.5,10,50.8,2.9,8.2,7.3,16.3,14,21.9.9.8,2.2,1.1,3.3.8,8.4-2,13.7-10.1,17.2-17.5,7.4-15.6,10.4-30.3,14-49.8,1.3-6.8,1.7-12.8,2.7-18.9.7-4.4,1.3-9.1,1.7-14.2,1.4-17.3,2.4-32.6,2.8-45.6,1-30.4,0-61.4-2.9-93.3-.8-8.7-2.5-20.4-3.9-28.2-1.6-9.5-4-18.9-7-28-1.9-5.6-4.6-10.7-8.2-15.2-.2-.2-.5-.3-.8,0,0,0,0,0,0,0ZM519.9,816.8c.2-1.5-.1-3-1-4.3-.1-.2-.3-.5-.3-.8-.7-2.3-1.8-6.5-3.3-12.6-.2-1-.6-2.1-1.1-3.3-.6-1.6-1-2.7-1.1-3.3-.4-2.2-1-4.3-1.9-6.3-.5-1-1.3-3.4-2.6-7.3-1.1-3.5-3.3-8.3-6.5-14.5-3.2-6-7-11.5-11.7-16.3-.2-.2-.6-.2-.8,0,0,0,0,0,0,0-2.1,2.8-4.2,5.8-5.6,9.2-2.6,6.1-4.7,12.3-6.2,18.7-3.2,13.3-5.5,27.4-6.9,42.1-4.7,47.3-4.7,94.4,0,141.3,1.7,17.1,4,32.8,7.1,46.9,3.1,14.3,7,28.4,14.3,40.7,3.2,5.3,8,10.5,14.5,11.8.3,0,.7,0,1,0,1-.3,1.9-.8,2.8-1.6,6.5-5.9,10.7-14.2,13.7-23,3.5-10.4,6.1-21.5,7.6-33.4,5.3-41.3,3.8-83.6-1.1-125.5-.8-6.5-2.1-11.9-2.8-17.8-.4-3.4-1.1-7.9-2.2-13.3-.9-4.8-2-10-3.1-15.6-1.4-6.5-2.2-10-2.4-10.5-.2-.4-.3-.8-.2-1.2ZM347.3,797.3c-.1-.2-.4-.2-.5-.1-.1,0-.2.2-.2.4,6.8,36.8,9.6,74.1,7.5,112.7-.2,4.1-.6,9.7.9,12.8,1.9,4,5.4,9.8,6.9,14.1,4.2,11.9,6.1,24.5,7.8,37.9.3,2.1,1,4.6,1.4,6.8,0,.5.5.8,1,.7.2,0,.4-.1.5-.3,1.4-1.7,2.3-3.5,2.9-5.3,1.9-6.7,3.2-12.9,4-18.5,4.4-31.6,6.7-61.5,6.7-89.8,0-3-.2-6.5-.5-10.7-.1-1.6-.7-3-1.6-4.3-9-12.2-17.7-25.4-26.2-39.3-4.9-8-8.4-13.6-10.6-17ZM462.1,797.2c-2.2,3.4-5.7,9.1-10.6,17-8.5,14-17.3,27.1-26.2,39.4-.9,1.3-1.5,2.8-1.6,4.3-.3,4.2-.5,7.8-.5,10.7,0,28.3,2.3,58.2,6.7,89.8.8,5.6,2.1,11.8,4,18.5.5,1.9,1.5,3.6,2.9,5.3.3.4.8.4,1.2.1.2-.1.3-.3.3-.5.4-2.3,1.1-4.8,1.4-6.8,1.7-13.5,3.6-26,7.9-37.9,1.5-4.3,5.1-10.1,6.9-14.1,1.5-3.1,1.1-8.7.9-12.8-2.1-38.5.7-75.9,7.5-112.7,0-.2-.1-.4-.3-.4-.1,0-.3,0-.4.2ZM267.3,865.8c0-.3-.3-.5-.6-.5-.1,0-.2,0-.3.1-4.1,3.4-7.4,7.5-9.6,12.4-3,6.4-5.3,13.1-6.9,20.1-2.3,9.8-4,20.2-4.8,29.8-3.5,39.3-2,78.5,4.5,117.8,1.9,11.9,4.5,23.1,7.8,33.8,3.7,12,9.1,25.9,18.5,34,2.5,2.1,5.5,3.5,7.7.7,6.8-8.7,5.6-24.6,3.8-35.3-2.5-14.4-7-28-12.6-41.5-3.2-7.8-5.6-15.5-7.1-23.3-1.8-9.3-3-17.1-3.6-23.5-2.6-28.8-1.7-58.9.7-88.2,1.6-19.7,2.4-30,2.5-30.8.2-1.9.3-3.8.2-5.7ZM542,866c-.1,1.9,0,3.8.2,5.6,0,.8.9,11.1,2.5,30.8,2.4,29.3,3.3,59.4.6,88.1-.6,6.4-1.8,14.2-3.6,23.4-1.5,7.8-3.9,15.5-7.1,23.3-5.6,13.5-10.1,27-12.6,41.4-1.9,10.7-3.1,26.6,3.7,35.2,2.2,2.7,5.2,1.4,7.7-.7,9.4-8.1,14.8-22,18.5-34,3.3-10.7,5.9-21.9,7.8-33.8,6.4-39.2,7.9-78.4,4.5-117.6-.8-9.6-2.5-20-4.8-29.8-1.6-7-3.9-13.7-6.9-20.1-2.3-4.9-5.5-9-9.6-12.4-.2-.2-.5-.2-.7,0,0,0-.1.2-.1.3ZM351.4,937c-.2-.2-.4-.2-.6,0,0,0-.1.2-.1.3.6,30.4-3.4,60.2-12,89.4-3.2,11.1-7,20.7-11.3,28.9-3.1,5.9-5.4,9.9-6.8,11.9-4.1,5.7-7.2,10.3-9.1,13.6-12.4,21.8-13,54.4,11.3,68.3,5,2.8,9.4,4.4,13.4,4.7,19.6,1.4,26.4-37.1,28.2-50.3,2.7-18.8,4.1-37.3,4.3-55.4.2-14.6,0-23.4-1.8-36.8-3.3-23.6-7-43.6-11.1-60-1.6-6.6-2.9-11.1-3.8-13.7-.2-.4-.3-.8-.6-1ZM457.9,937.2c-.2.2-.4.6-.6,1-.9,2.5-2.2,7.1-3.8,13.7-4.1,16.4-7.7,36.4-11,60-1.9,13.3-1.9,22.1-1.8,36.7.2,18.1,1.7,36.5,4.3,55.3,1.9,13.1,8.6,51.7,28.2,50.2,3.9-.3,8.4-1.8,13.4-4.7,24.3-13.8,23.6-46.4,11.3-68.2-1.9-3.4-4.9-7.9-9.1-13.6-1.4-2-3.7-5.9-6.8-11.9-4.3-8.2-8.1-17.8-11.3-28.8-8.6-29.2-12.6-59-12-89.4,0-.2-.2-.4-.4-.4-.1,0-.2,0-.3.1ZM255.8,1235.8c-2.5,6.6-4.5,14.1-6.1,22.5-2,10.8-3.5,23.1-4.2,33.8-2.3,36.8-.7,72.9,4.7,108.6,3.6,23.4,9.4,47.6,18.9,69,3,6.8,5.1,11.9,6.3,15.4,3.3,9.4,5,14.7,5.3,15.7,1.1,4.3,2.1,7.4,2.8,9.3.4,1.1,1.1,3.5,2,7.4.5,2,1.2,4.5,2.2,7.3,0,.3.1.5.1.8v.9c0,.2,0,.5.1.7,1.5,3.9,2.7,7.9,3.7,12,.7,3.2,2.3,6.1,3.2,9.8,1.4,5.6,3.9,12.3,6.2,17.1.3.7,1.2,1,1.8.6.3-.1.5-.4.7-.7.2-.4.3-1.1.4-2.1.7-7.6,1.1-15.6,1.2-24,.3-33.4-1.1-67.2-2.6-100-.6-13.7-2.5-36.9-3.4-48.4-.9-11-2.5-24.7-4.6-41.2-1.7-12.8-4.1-24.9-7.2-36.3-.6-2.3-1.7-5.2-3.1-8.6-.9-2.1-2.5-4.7-4.8-7.8-9.9-13.5-15.4-29.2-18.9-44.8-1.4-6.2-2.8-11.9-4.1-17,0-.2-.2-.3-.4-.2,0,0-.2,0-.2.2ZM553.5,1236c-.1-.3-.5-.4-.8-.3-.2,0-.3.2-.3.4-2.1,11-4.7,21.6-7.9,32-3.6,11.7-9,22.3-16.2,31.8-1.4,1.8-2.9,4.6-3.5,6.3-2.7,7.3-4.9,15.1-6.5,23.5-3,16-4.3,26.2-6.5,45.3-2.1,18-3,34.8-4.4,53.4-.5,6.5-1.4,28.8-2.8,66.9-.5,14.7-.7,31.5-.4,50.3,0,6.9.5,13.6,1.4,20.2,0,.7.7,1.2,1.4,1.1,0,0,.2,0,.2,0,.5-.2.9-.6,1.3-1.3,1.2-2.4,2.7-6,4.3-11,.5-1.6,4.6-15.8,12.3-42.7,4.1-14.3,8.9-28.6,15.5-43.4,3.1-7.1,6-14.9,8.5-23.4,3.1-10.5,5.5-20.3,7.2-29.2,8.2-44.1,10.4-88.5,6.5-133.5-1-11.4-3.1-23.7-6.2-36.7-.6-2.7-2.1-7-3.2-9.5ZM339.1,1258c-1.6,5.9-2.7,12-3.3,18.4-3.7,44.3-4.8,87-3.1,128.2.3,8.4,1.4,15.8,3.2,22.2.1.5.4.9.8,1.3.2.2.5.3.8,0,0,0,.1-.1.2-.2,8.3-22.4,13.1-45.4,14.3-69.1,1.7-32.4-1.7-63.9-10.1-94.6-.6-2.3-1.3-4.4-2-6.3,0-.2-.3-.3-.4-.2-.1,0-.2.1-.2.2ZM470.2,1258.2c0-.2-.2-.3-.4-.2-.1,0-.2.1-.2.2-.7,1.9-1.4,4-2,6.3-8.4,30.6-11.7,62.1-10.1,94.5,1.2,23.6,6,46.6,14.3,69,.1.3.4.4.7.3,0,0,.2,0,.2-.1.4-.4.6-.8.8-1.3,1.8-6.4,2.8-13.8,3.2-22.2,1.6-41.1.6-83.8-3.2-128-.5-6.3-1.6-12.4-3.3-18.3Z"/>
  <g>
    <path class="st1" d="M329.9,295.6c1.1,1,2.5,1.7,4.1,2,2.2.5,4.7,1.1,7.5,1.9.6.2,1.3.4,1.9.5,10.2,2.5,22.2,6.3,36,11.4,1.8.7,3.3,1.6,5.1,2.3,5.8,2.3,10.4,7.6,12.6,13.2,1,2.5,1.5,6.3,1.5,11.5.3,28.4.3,52.7.2,72.9,0,5.5,0,11.2.1,17.3-6.2.4-12.6.7-19.1.9-16.9.6-33,2.3-48.2,5.2-9.1,1.7-15.4,2.6-18.7,2.6-17.3,0-31.4-6.5-42.4-19.6-.8-.9-2.3-3.2-4.6-6.9-7.6-12-21.4-15-35.2-15.9-.3,0-.5-.2-.4-.5,0,0,0-.2,0-.2,8.3-12.1,17.3-25.9,25.4-41.1,2.6-4.9,6.4-11,11.5-18.5,11.4-16.5,27.6-32.4,46.9-38.1,4.8-1.4,10-1.7,15.7-.9Z"/>
    <path class="st1" d="M490.4,295.6c.9.8,2,1.4,3.4,1.8,6.6,2.1,13.2,5.2,19,9.5,7.7,5.8,14.4,12.4,20.3,19.8,7.3,9.3,13.1,18.1,17.4,26.4,4.1,7.9,8.7,15.8,13.8,23.5,3.9,5.9,7.8,11.9,11.7,17.7-.2,0-.6.2-1.1.2-5.2.5-10.6,1.5-16.2,3-4.5,1.2-8.9,3.6-13.1,7.4-3.6,3.2-5.4,8.2-8.7,12.1-12.4,14.7-28.6,21.4-48.5,19.9-6-.4-13.1-2.4-18.9-3.3-19.9-3.1-40.2-4.7-60.8-4.7-.5,0-1-.4-1-1h0c0-38.1,0-68.1,0-89.9,0-5.1.4-8.7,1.4-11,3.2-8,9.7-12.8,18-15.9,16-6,32.6-11,49.7-15,4.7-1.1,9.3-1.3,13.8-.6Z"/>
  </g>
</svg>
