<?xml version="1.0" encoding="UTF-8"?>
<svg id="Layer_1" xmlns="http://www.w3.org/2000/svg" version="1.1" viewBox="0 0 800 624.2">
  <!-- Generator: Adobe Illustrator 30.5.1, SVG Export Plug-In . SVG Version: 2.1.4 Build 3)  -->
  <defs>
    <style>
      .st0 {
        fill: #ffd07b;
        font-family: AnthemRegular, Anthem;
        font-size: 108.9px;
      }

      .st1 {
        fill: #1789fc;
      }
    </style>
  </defs>
  <g>
  <rect x="0" y="0" width="800" height="624.2" fill="#000000"/>
    <path class="st1" d="M241,102l-85.4,61.4c-4.1,2.9-9.8,2-12.8-2.1-1.1-1.6-1.7-3.4-1.7-5.3V9.1C141.2,4.1,145.2,0,150.3,0c2.4,0,4.7,1,6.5,2.7l85.4,85.4c3.6,3.6,3.6,9.4,0,12.9-.3.3-.7.7-1.1,1Z"/>
    <path class="st1" d="M394.9,248.5c-4.3-2.3-7.5-.5-11.3,2.3-68.1,48.9-143.2,102.9-225.3,162-3.1,2.2-5.3,3.4-6.8,3.6-5.2.6-10.3-3.3-10.3-8.8,0-46,0-101,0-164.9,0-2.1.7-3.9,2.1-5.4.4-.5,2-1.7,4.7-3.6,135.9-97.6,215.1-154.5,237.6-170.6,3.5-2.5,7.7-2.5,11.1,0,2.4,1.8,3.6,4.6,3.6,8.4,0,38.3,0,87.9,0,148.8,0,4.1,1.2,6.9,4.9,8.9,4.3,2.3,7.5.5,11.3-2.3,68.1-48.9,143.2-102.9,225.3-162,3.1-2.2,5.3-3.4,6.8-3.6,5.2-.6,10.3,3.3,10.3,8.8,0,46,0,101,0,164.9,0,2.1-.7,3.9-2.1,5.4-.4.5-2,1.7-4.7,3.6-135.9,97.6-215.1,154.5-237.6,170.6-3.5,2.5-7.7,2.5-11.1,0-2.4-1.8-3.6-4.6-3.6-8.4,0-38.3,0-87.9,0-148.8s-1.2-6.9-4.9-8.9Z"/>
  </g>
  <text class="st0" transform="translate(-.9 584.5)"><tspan x="0" y="0">WORKOUTS</tspan></text>
</svg>